<mxfile host="app.diagrams.net" agent="Mozilla/5.0 (Windows NT 10.0; Win64; x64) AppleWebKit/537.36 (KHTML, like Gecko) Chrome/130.0.0.0 Safari/537.36" version="24.7.17">
  <diagram name="Page-1" id="Eilq3pRfCVr_bLG3Qs4A">
    <mxGraphModel dx="2181" dy="1048" grid="1" gridSize="10" guides="1" tooltips="1" connect="1" arrows="1" fold="1" page="1" pageScale="1" pageWidth="1100" pageHeight="850" math="0" shadow="0">
      <root>
        <mxCell id="0" />
        <mxCell id="1" parent="0" />
        <mxCell id="e7YbzL9bUhwGbMBtObNP-1" value="" style="strokeWidth=1;shadow=0;dashed=0;align=center;html=1;shape=mxgraph.mockup.containers.browserWindow;rSize=0;strokeColor=#666666;strokeColor2=#008cff;strokeColor3=#c4c4c4;mainText=,;recursiveResize=0;" parent="1" vertex="1">
          <mxGeometry y="30" width="840" height="640" as="geometry" />
        </mxCell>
        <mxCell id="e7YbzL9bUhwGbMBtObNP-2" value="Page 1" style="strokeWidth=1;shadow=0;dashed=0;align=center;html=1;shape=mxgraph.mockup.containers.anchor;fontSize=17;fontColor=#666666;align=left;whiteSpace=wrap;" parent="e7YbzL9bUhwGbMBtObNP-1" vertex="1">
          <mxGeometry x="60" y="12" width="110" height="26" as="geometry" />
        </mxCell>
        <mxCell id="e7YbzL9bUhwGbMBtObNP-3" value="https://www.draw.io" style="strokeWidth=1;shadow=0;dashed=0;align=center;html=1;shape=mxgraph.mockup.containers.anchor;rSize=0;fontSize=17;fontColor=#666666;align=left;" parent="e7YbzL9bUhwGbMBtObNP-1" vertex="1">
          <mxGeometry x="130" y="60" width="250" height="26" as="geometry" />
        </mxCell>
        <mxCell id="e7YbzL9bUhwGbMBtObNP-4" value="Admin" style="shape=rectangle;strokeColor=none;fillColor=none;linkText=;fontSize=17;fontColor=#0000ff;fontStyle=4;html=1;align=center;" parent="e7YbzL9bUhwGbMBtObNP-1" vertex="1">
          <mxGeometry x="12" y="300" width="150" height="30" as="geometry" />
        </mxCell>
        <mxCell id="e7YbzL9bUhwGbMBtObNP-5" value="Groomers" style="shape=rectangle;strokeColor=none;fillColor=none;linkText=;fontSize=17;fontColor=#0000ff;fontStyle=4;html=1;align=center;" parent="e7YbzL9bUhwGbMBtObNP-1" vertex="1">
          <mxGeometry x="20" y="250" width="150" height="30" as="geometry" />
        </mxCell>
        <mxCell id="e7YbzL9bUhwGbMBtObNP-7" value="Corduroy" style="rounded=0;whiteSpace=wrap;html=1;" parent="e7YbzL9bUhwGbMBtObNP-1" vertex="1">
          <mxGeometry x="20" y="140" width="800" height="60" as="geometry" />
        </mxCell>
        <mxCell id="Ls1McmnV-tlh_S6NcUG4-2" value="Report 1" style="strokeWidth=1;shadow=0;dashed=0;align=center;html=1;shape=mxgraph.mockup.forms.spinner;strokeColor=#999999;spinLayout=right;spinStyle=normal;adjStyle=triangle;fillColor=#aaddff;fontSize=17;fontColor=#666666;mainText=;html=1;overflow=fill;" parent="e7YbzL9bUhwGbMBtObNP-1" vertex="1">
          <mxGeometry x="510" y="300" width="150" height="60" as="geometry" />
        </mxCell>
        <mxCell id="Ls1McmnV-tlh_S6NcUG4-3" value="Home" style="shape=rectangle;strokeColor=none;fillColor=none;linkText=;fontSize=17;fontColor=#0000ff;fontStyle=4;html=1;align=center;" parent="e7YbzL9bUhwGbMBtObNP-1" vertex="1">
          <mxGeometry x="10" y="210" width="150" height="30" as="geometry" />
        </mxCell>
        <mxCell id="Ls1McmnV-tlh_S6NcUG4-4" value="Approve" style="strokeWidth=1;shadow=0;dashed=0;align=center;html=1;shape=mxgraph.mockup.buttons.button;strokeColor=#666666;fontColor=#ffffff;mainText=;buttonStyle=round;fontSize=17;fontStyle=1;fillColor=#008cff;whiteSpace=wrap;" parent="e7YbzL9bUhwGbMBtObNP-1" vertex="1">
          <mxGeometry x="690" y="305" width="90" height="50" as="geometry" />
        </mxCell>
        <mxCell id="FwJ8pV3AhUn2TfZKOzdj-3" value="Date/Time" style="rounded=0;whiteSpace=wrap;html=1;" vertex="1" parent="e7YbzL9bUhwGbMBtObNP-1">
          <mxGeometry x="150" y="312.5" width="140" height="35" as="geometry" />
        </mxCell>
        <mxCell id="FwJ8pV3AhUn2TfZKOzdj-4" value="Trail Name" style="rounded=0;whiteSpace=wrap;html=1;" vertex="1" parent="e7YbzL9bUhwGbMBtObNP-1">
          <mxGeometry x="340" y="312.5" width="140" height="35" as="geometry" />
        </mxCell>
        <mxCell id="FwJ8pV3AhUn2TfZKOzdj-5" value="Date/Time" style="rounded=0;whiteSpace=wrap;html=1;" vertex="1" parent="e7YbzL9bUhwGbMBtObNP-1">
          <mxGeometry x="150" y="378" width="140" height="35" as="geometry" />
        </mxCell>
        <mxCell id="FwJ8pV3AhUn2TfZKOzdj-6" value="Trail Name" style="rounded=0;whiteSpace=wrap;html=1;" vertex="1" parent="e7YbzL9bUhwGbMBtObNP-1">
          <mxGeometry x="340" y="378" width="140" height="35" as="geometry" />
        </mxCell>
        <mxCell id="FwJ8pV3AhUn2TfZKOzdj-7" value="Report 2" style="strokeWidth=1;shadow=0;dashed=0;align=center;html=1;shape=mxgraph.mockup.forms.spinner;strokeColor=#999999;spinLayout=right;spinStyle=normal;adjStyle=triangle;fillColor=#aaddff;fontSize=17;fontColor=#666666;mainText=;html=1;overflow=fill;" vertex="1" parent="e7YbzL9bUhwGbMBtObNP-1">
          <mxGeometry x="510" y="378" width="150" height="60" as="geometry" />
        </mxCell>
        <mxCell id="FwJ8pV3AhUn2TfZKOzdj-8" value="Approve" style="strokeWidth=1;shadow=0;dashed=0;align=center;html=1;shape=mxgraph.mockup.buttons.button;strokeColor=#666666;fontColor=#ffffff;mainText=;buttonStyle=round;fontSize=17;fontStyle=1;fillColor=#008cff;whiteSpace=wrap;" vertex="1" parent="e7YbzL9bUhwGbMBtObNP-1">
          <mxGeometry x="690" y="378" width="90" height="50" as="geometry" />
        </mxCell>
        <mxCell id="e7YbzL9bUhwGbMBtObNP-8" value="Good Morning Admin" style="rounded=0;whiteSpace=wrap;html=1;" parent="1" vertex="1">
          <mxGeometry x="150" y="260" width="650" height="50" as="geometry" />
        </mxCell>
      </root>
    </mxGraphModel>
  </diagram>
</mxfile>
